{
  "nodes": [
    {
      "name": "Cylinder587",
      "mesh": 0
    }
  ],
  "scene": 0,
  "materials": [
    {
      "name": "default",
      "doubleSided": true,
      "emissiveFactor": [
        0.00000000000000000000e+00,
        0.00000000000000000000e+00,
        0.00000000000000000000e+00
      ],
      "pbrMetallicRoughness": {
        "baseColorFactor": [
          7.89853807692307730015e-01,
          8.13333333333333352577e-01,
          6.94044444444444463826e-01,
          1.00000000000000000000e+00
        ],
        "metallicFactor": 1.00000000000000005551e-01,
        "roughnessFactor": 8.00000000000000044409e-01
      }
    }
  ],
  "accessors": [
    {
      "count": 2580,
      "type": "SCALAR",
      "byteOffset": 0,
      "bufferView": 0,
      "componentType": 5125
    },
    {
      "count": 480,
      "max": [
        4.07708163336880924366e-01,
        2.32109139340223535886e-01,
        1.01514086717376406099e+00
      ],
      "min": [
        -8.17038479999994127212e-02,
        1.59753045377841740304e-03,
        7.90588156160290655983e-01
      ],
      "type": "VEC3",
      "byteOffset": 0,
      "bufferView": 1,
      "componentType": 5126
    },
    {
      "count": 480,
      "type": "VEC3",
      "byteOffset": 12,
      "bufferView": 1,
      "componentType": 5126
    },
    {
      "count": 480,
      "type": "VEC4",
      "byteOffset": 24,
      "bufferView": 1,
      "componentType": 5126
    }
  ],
  "asset": {
    "version": "2.0",
    "generator": "Wings 3D 2.3"
  },
  "bufferViews": [
    {
      "buffer": 0,
      "byteLength": 10320,
      "byteOffset": 0
    },
    {
      "buffer": 0,
      "byteStride": 40,
      "byteLength": 19200,
      "byteOffset": 10320
    }
  ],
  "buffers": [
    {
      "uri": "maquinac.bin",
      "byteLength": 29520
    }
  ],
  "meshes": [
    {
      "name": "Cylinder587",
      "primitives": [
        {
          "attributes": {
            "NORMAL": 2,
            "POSITION": 1,
            "COLOR_0": 3
          },
          "material": 0,
          "indices": 0
        }
      ]
    }
  ],
  "scenes": [
    {
      "nodes": [
        0
      ]
    }
  ]
}